<svg width="12" height="12" viewBox="0 0 12 12" fill="none" xmlns="http://www.w3.org/2000/svg">
<path d="M4.65789 6.44737C4.97197 6.44737 5.27318 6.3226 5.49526 6.10052C5.71734 5.87844 5.84211 5.57723 5.84211 5.26316C5.84211 4.60947 5.60526 4.31579 5.36842 3.84211C4.86063 2.827 5.26232 1.92179 6.31579 1C6.55263 2.18421 7.26316 3.32105 8.21053 4.07895C9.15789 4.83684 9.63158 5.73684 9.63158 6.68421C9.63158 7.11965 9.54581 7.55082 9.37918 7.95311C9.21255 8.3554 8.96831 8.72093 8.66041 9.02883C8.35251 9.33673 7.98698 9.58097 7.58469 9.7476C7.1824 9.91424 6.75123 10 6.31579 10C5.88035 10 5.44918 9.91424 5.04689 9.7476C4.6446 9.58097 4.27907 9.33673 3.97117 9.02883C3.66327 8.72093 3.41903 8.3554 3.2524 7.95311C3.08577 7.55082 3 7.11965 3 6.68421C3 6.13805 3.20511 5.59758 3.47368 5.26316C3.47368 5.57723 3.59845 5.87844 3.82053 6.10052C4.04261 6.3226 4.34382 6.44737 4.65789 6.44737V6.44737Z" stroke="#F0F6FC" stroke-opacity="0.5" stroke-linecap="round" stroke-linejoin="round"/>
</svg>
