<svg width="12" height="12" viewBox="0 0 12 12" fill="none" xmlns="http://www.w3.org/2000/svg">
<path d="M6 1.5C3.79 1.5 2 2.395 2 3.5V8.5C2 9.605 3.795 10.5 6 10.5C8.205 10.5 10 9.605 10 8.5V3.5C10 2.395 8.21 1.5 6 1.5ZM9 8.5C9 8.75 7.935 9.5 6 9.5C4.065 9.5 3 8.75 3 8.5V7.385C3.805 7.775 4.86 8 6 8C7.14 8 8.195 7.775 9 7.385V8.5ZM9 6.225C8.35 6.7 7.21 7 6 7C4.79 7 3.65 6.7 3 6.225V4.82C3.735 5.235 4.805 5.5 6 5.5C7.195 5.5 8.265 5.235 9 4.82V6.225ZM6 4.5C4.065 4.5 3 3.75 3 3.5C3 3.25 4.065 2.5 6 2.5C7.935 2.5 9 3.25 9 3.5C9 3.75 7.935 4.5 6 4.5Z" fill="#F0F6FC" fill-opacity="0.5"/>
</svg>
