<svg width="8" height="8" viewBox="0 0 8 8" fill="none" xmlns="http://www.w3.org/2000/svg">
<g clip-path="url(#clip0_1209_66)">
<path d="M4.85417 3.16667C4.5125 2.19583 3.5875 1.5 2.5 1.5C1.12083 1.5 0 2.62083 0 4C0 5.37917 1.12083 6.5 2.5 6.5C3.5875 6.5 4.5125 5.80417 4.85417 4.83333H6.66667V6.5H8.33333V4.83333H9.16667V3.16667H4.85417ZM2.5 4.83333C2.04167 4.83333 1.66667 4.45833 1.66667 4C1.66667 3.54167 2.04167 3.16667 2.5 3.16667C2.95833 3.16667 3.33333 3.54167 3.33333 4C3.33333 4.45833 2.95833 4.83333 2.5 4.83333Z" fill="#F0F6FC" fill-opacity="0.5"/>
</g>
<defs>
<clipPath id="clip0_1209_66">
<rect width="8" height="8" fill="white"/>
</clipPath>
</defs>
</svg>
