<svg width="17" height="16" viewBox="0 0 17 16" fill="none" xmlns="http://www.w3.org/2000/svg">
<path d="M9.91303 10.3933L11.6397 8.66667H5.19303V7.33333H11.6397L9.91303 5.60667L10.8597 4.66667L14.193 8L10.8597 11.3333L9.91303 10.3933ZM13.193 2C13.5467 2 13.8858 2.14048 14.1358 2.39052C14.3859 2.64057 14.5264 2.97971 14.5264 3.33333V6.44667L13.193 5.11333V3.33333H3.8597V12.6667H13.193V10.8867L14.5264 9.55333V12.6667C14.5264 13.0203 14.3859 13.3594 14.1358 13.6095C13.8858 13.8595 13.5467 14 13.193 14H3.8597C3.1197 14 2.52637 13.4 2.52637 12.6667V3.33333C2.52637 2.59333 3.1197 2 3.8597 2H13.193Z" fill="#F0F6FC" fill-opacity="0.25"/>
</svg>
