<svg width="8" height="8" viewBox="0 0 8 8" fill="none" xmlns="http://www.w3.org/2000/svg">
<path d="M6.66667 4.33333H1.33333C1.15 4.33333 1 4.48333 1 4.66667V6.66667C1 6.85 1.15 7 1.33333 7H6.66667C6.85 7 7 6.85 7 6.66667V4.66667C7 4.48333 6.85 4.33333 6.66667 4.33333ZM2.33333 6.33333C1.96667 6.33333 1.66667 6.03333 1.66667 5.66667C1.66667 5.3 1.96667 5 2.33333 5C2.7 5 3 5.3 3 5.66667C3 6.03333 2.7 6.33333 2.33333 6.33333ZM6.66667 1H1.33333C1.15 1 1 1.15 1 1.33333V3.33333C1 3.51667 1.15 3.66667 1.33333 3.66667H6.66667C6.85 3.66667 7 3.51667 7 3.33333V1.33333C7 1.15 6.85 1 6.66667 1ZM2.33333 3C1.96667 3 1.66667 2.7 1.66667 2.33333C1.66667 1.96667 1.96667 1.66667 2.33333 1.66667C2.7 1.66667 3 1.96667 3 2.33333C3 2.7 2.7 3 2.33333 3Z" fill="#F0F6FC" fill-opacity="0.5"/>
</svg>
